<svg width="220" height="220" viewBox="0 0 35 35" fill="none" xmlns="http://www.w3.org/2000/svg">
<g clip-path="url(#clip0_301_15)">
<path d="M17.5 2.91663C9.45 2.91663 2.91667 9.44996 2.91667 17.5C2.91667 25.55 9.45 32.0833 17.5 32.0833C25.55 32.0833 32.0833 25.55 32.0833 17.5C32.0833 9.44996 25.55 2.91663 17.5 2.91663ZM17.5 7.29163C19.9208 7.29163 21.875 9.24579 21.875 11.6666C21.875 14.0875 19.9208 16.0416 17.5 16.0416C15.0792 16.0416 13.125 14.0875 13.125 11.6666C13.125 9.24579 15.0792 7.29163 17.5 7.29163ZM17.5 28C13.8542 28 10.6313 26.1333 8.75 23.3041C8.79375 20.402 14.5833 18.8125 17.5 18.8125C20.4021 18.8125 26.2063 20.402 26.25 23.3041C24.3688 26.1333 21.1458 28 17.5 28Z" fill="#666262"/>
</g>
<defs>
<clipPath id="clip0_301_15">
<rect width="35" height="35" fill="white"/>
</clipPath>
</defs>
</svg>
